<?xml version="1.0" encoding="UTF-8"?>
<svg width="24px" height="24px" viewBox="0 0 24 24" version="1.1" xmlns="http://www.w3.org/2000/svg" xmlns:xlink="http://www.w3.org/1999/xlink">
    <!-- Generator: Sketch 48.2 (47327) - http://www.bohemiancoding.com/sketch -->
    <title>ic-agedcare-white</title>
    <desc>Created with Sketch.</desc>
    <defs></defs>
    <g id="Page-1" stroke="none" stroke-width="1" fill="none" fill-rule="evenodd">
        <g id="ic-agedcare-white" fill="#FFFFFF">
            <path d="M12.7631946,3.34237219 C12.3271137,2.88463069 11.6139347,2.88623493 11.1788506,3.34504592 L3.2516484,11.7191485 C2.81656432,12.179029 2.96009721,12.5549546 3.57061039,12.5549546 L6.04107067,12.5549546 C6.24839596,12.5597673 6.41684776,12.7715262 6.41684776,13.0303426 L6.41684776,19.5235424 C6.41684776,19.7855674 6.61669738,20 6.86090265,20 L17.0826376,20 C17.3263445,20 17.5261941,19.7855674 17.5261941,19.5235424 L17.5261941,13.0303426 C17.5261941,12.7715262 17.7200632,12.5597673 17.958288,12.5549546 L20.4307418,12.5549546 C21.0407566,12.5549546 21.1832927,12.1800985 20.7472118,11.722357 L12.7631946,3.34237219 Z" id="Fill-1"></path>
        </g>
    </g>
</svg>