<?xml version="1.0" encoding="UTF-8"?>
<svg width="24px" height="24px" viewBox="0 0 24 24" version="1.1" xmlns="http://www.w3.org/2000/svg" xmlns:xlink="http://www.w3.org/1999/xlink">
    <!-- Generator: Sketch 48.2 (47327) - http://www.bohemiancoding.com/sketch -->
    <title>ic-health-services-white</title>
    <desc>Created with Sketch.</desc>
    <defs></defs>
    <g id="Page-1" stroke="none" stroke-width="1" fill="none" fill-rule="evenodd">
        <g id="ic-health-services-white" fill="#FFFFFF">
            <path d="M8.85101136,20 C8.73705486,20 8.64335728,19.9063024 8.64335728,19.7923459 L8.64335728,15.5642968 C8.64335728,15.4493273 8.55067266,15.3566427 8.4357032,15.3566427 L4.20765408,15.3566427 C4.0931911,15.3566427 4,15.2629451 4,15.1484822 L4,8.85101136 C4,8.73654838 4.09268463,8.64335728 4.20765408,8.64335728 L8.4357032,8.64335728 C8.55016618,8.64335728 8.64335728,8.55067266 8.64335728,8.4357032 L8.64335728,4.20765408 C8.64335728,4.0931911 8.73705486,4 8.85101136,4 L15.1489886,4 C15.2629451,4 15.3566427,4.0931911 15.3566427,4.20765408 L15.3566427,8.4357032 C15.3566427,8.55067266 15.4498338,8.64335728 15.5642968,8.64335728 L19.7923459,8.64335728 C19.9063024,8.64335728 20,8.73705486 20,8.85101136 L20,15.1484822 C20,15.2629451 19.9063024,15.3566427 19.7923459,15.3566427 L15.5642968,15.3566427 C15.4498338,15.3566427 15.3566427,15.4493273 15.3566427,15.5642968 L15.3566427,19.7923459 C15.3566427,19.9063024 15.2629451,20 15.1489886,20 L8.85101136,20 Z" id="Fill-1"></path>
        </g>
    </g>
</svg>