<?xml version="1.0" encoding="UTF-8"?>
<svg width="24px" height="24px" viewBox="0 0 24 24" version="1.1" xmlns="http://www.w3.org/2000/svg" xmlns:xlink="http://www.w3.org/1999/xlink">
    <!-- Generator: Sketch 48.2 (47327) - http://www.bohemiancoding.com/sketch -->
    <title>ic-insurance-white</title>
    <desc>Created with Sketch.</desc>
    <defs></defs>
    <g id="Page-1" stroke="none" stroke-width="1" fill="none" fill-rule="evenodd">
        <g id="ic-insurance-white" fill="#FFFFFF">
            <path d="M12.3223051,3.16301077 C12.2267953,3.03254218 12.1571865,2.99708501 11.9998382,3.00018321 C11.8428136,2.99708501 11.7732048,3.03254218 11.677695,3.16301077 C11.3270609,3.64185461 10.5582919,7.37653108 5.54564396,5.53829651 C4.97873047,5.33039842 5.00010509,5.91145735 5.00010509,6.07049822 L5.00010509,13.7271802 C5.00010509,16.0484196 8.54400325,18.1909961 10.342177,19.2075496 C11.0402078,19.6020536 11.5012448,20 11.9998382,20 C12.4984315,20 12.9597923,19.6020536 13.657823,19.2075496 C15.4559968,18.1909961 18.999895,16.0484196 18.999895,13.7271802 L18.999895,6.07049822 C18.999895,5.91145735 19.0212633,5.33037295 18.4543561,5.53829651 C13.4235011,7.38882252 12.6729392,3.64185461 12.3223051,3.16301077 Z" id="Fill-1"></path>
        </g>
    </g>
</svg>